#!OML:ASF H:\Dans Jumps\Project 1\Capture day 1\Session 1\subject.ASF
:FULLY-SPECIFIED
:DEGREES
349
root 0.349337 20.7776 -9.1662 8.91313 4.40114 0.161479
lowerback 1.53452 -1.30019 -2.38151
upperback 3.70581 -1.77872 2.32838
thorax 3.10327 -0.995682 3.71517
lowerneck -10.4603 -0.150265 -3.14506
upperneck 26.1494 0.305567 0.595085
head 10.0204 -0.0948741 0.783495
rclavicle 1.33186e-014 -3.97569e-016
rhumerus -21.8734 -8.15811 -80.0667
rradius 28.3245
rwrist 30.4476
rhand -18.3495 -25.2821
rfingers 7.12502
rthumb 7.93299 -55.1132
lclavicle 1.33186e-014 -3.97569e-016
lhumerus -14.8814 -10.3907 86.9361
lradius 26.2205
lwrist 21.225
lhand -26.1356 -7.24906
lfingers 7.12502
lthumb 0.414777 22.7303
rfemur -17.6081 -4.62382 17.7718
rtibia 39.1254
rfoot 27.748 -9.22745
rtoes 26.4777
lfemur -23.1176 4.38123 -16.7809
ltibia 44.3898
lfoot 29.779 -0.699946
ltoes 8.21966
350
root 0.346416 20.8893 -9.08127 8.48234 4.38512 0.179998
lowerback 2.19944 -1.25048 -2.47771
upperback 3.92516 -1.72221 2.31229
thorax 2.9547 -0.970836 3.76687
lowerneck -10.5265 -0.186554 -3.15726
upperneck 26.2031 0.240243 0.670027
head 10.0537 -0.118185 0.804846
rclavicle -2.6339e-014 1.90833e-014
rhumerus -21.903 -8.53379 -80.0922
rradius 28.1927
rwrist 30.693
rhand -18.3487 -25.3028
rfingers 7.12502
rthumb 7.93375 -55.1339
lclavicle -2.6339e-014 1.90833e-014
lhumerus -14.8411 -10.5548 86.9805
lradius 26.1817
lwrist 21.4594
lhand -25.8281 -7.11832
lfingers 7.12502
lthumb 0.711787 22.8602
rfemur -18.1239 -4.54581 17.7471
rtibia 40.1161
rfoot 27.2363 -9.02851
rtoes 26.3766
lfemur -23.4288 4.37285 -16.8466
ltibia 44.8503
lfoot 29.3665 -0.703623
ltoes 8.33467
351
root 0.343962 20.9899 -8.9965 8.06537 4.35327 0.194337
lowerback 2.88039 -1.19866 -2.55424
upperback 4.13393 -1.66405 2.29207
thorax 2.78572 -0.943955 3.80305
lowerneck -10.5944 -0.212657 -3.14993
upperneck 26.2683 0.193352 0.713848
head 10.0914 -0.134687 0.814093
rclavicle -3.97569e-015 -7.95139e-016
rhumerus -21.9142 -8.95381 -80.1245
rradius 28.009
rwrist 30.9774
rhand -18.3086 -25.332
rfingers 7.12502
rthumb 7.97251 -55.1616
lclavicle -3.97569e-015 -7.95139e-016
lhumerus -14.8007 -10.5809 87.0134
lradius 26.0707
lwrist 21.4887
lhand -25.5492 -6.89191
lfingers 7.12502
lthumb 0.981093 23.0856
rfemur -18.6459 -4.52241 17.7301
rtibia 40.9886
rfoot 26.4762 -8.76176
rtoes 26.0191
lfemur -23.7063 4.38054 -16.9135
ltibia 45.0792
lfoot 28.8179 -0.703052
ltoes 8.13408
352
root 0.341957 21.0797 -8.9113 7.7001 4.31686 0.200554
lowerback 3.53078 -1.15033 -2.60491
upperback 4.32148 -1.61056 2.26912
thorax 2.61198 -0.91812 3.82066
lowerneck -10.663 -0.22939 -3.1211
upperneck 26.3448 0.163507 0.72571
head 10.1331 -0.144944 0.810431
rclavicle -2.52457e-014 2.06736e-014
rhumerus -21.9092 -9.39176 -80.169
rradius 27.7837
rwrist 31.277
rhand -18.2551 -25.3628
rfingers 7.12502
rthumb 8.02416 -55.1905
lclavicle -2.52457e-014 2.06736e-014
lhumerus -14.7811 -10.4784 87.0388
lradius 25.912
lwrist 21.3396
lhand -25.313 -6.62581
lfingers 7.12502
lthumb 1.2093 23.3505
rfemur -19.2149 -4.5501 17.7279
rtibia 41.7423
rfoot 25.5513 -8.45943
rtoes 25.4573
lfemur -23.9976 4.4026 -16.9788
ltibia 45.0936
lfoot 28.2166 -0.699249
ltoes 7.77151
